<svg xmlns="http://www.w3.org/2000/svg" xmlns:xlink="http://www.w3.org/1999/xlink" width="500" zoomAndPan="magnify" viewBox="0 0 375 374.999991" height="500" preserveAspectRatio="xMidYMid meet" version="1.0"><defs><g/></defs><g fill="#d9d9d9" fill-opacity="1"><g transform="translate(74.220511, 200.235956)"><g><path d="M 32.984375 -4.28125 C 33.203125 -3.875 33.242188 -3.515625 33.109375 -3.203125 C 32.972656 -2.898438 32.65625 -2.726562 32.15625 -2.6875 L 24.328125 -2.03125 C 23.953125 -2 23.597656 -2.085938 23.265625 -2.296875 C 22.941406 -2.503906 22.703125 -2.78125 22.546875 -3.125 L 21.609375 -5.28125 L 11.6875 -4.453125 L 11.125 -2.203125 C 11.039062 -1.859375 10.859375 -1.546875 10.578125 -1.265625 C 10.304688 -0.992188 9.957031 -0.835938 9.53125 -0.796875 L 1.734375 -0.140625 C 1.265625 -0.109375 0.921875 -0.222656 0.703125 -0.484375 C 0.492188 -0.753906 0.46875 -1.113281 0.625 -1.5625 L 11.359375 -33.046875 C 11.515625 -33.472656 11.742188 -33.804688 12.046875 -34.046875 C 12.359375 -34.285156 12.691406 -34.414062 13.046875 -34.4375 L 15.359375 -34.640625 C 15.765625 -34.671875 16.128906 -34.578125 16.453125 -34.359375 C 16.785156 -34.148438 17.03125 -33.875 17.1875 -33.53125 Z M 13.546875 -11.859375 L 18.578125 -12.28125 L 15.421875 -19.46875 Z M 13.546875 -11.859375 "/></g></g></g><g fill="#d9d9d9" fill-opacity="1"><g transform="translate(108.082706, 197.382077)"><g><path d="M 21.546875 -12.390625 C 21.941406 -12.691406 22.347656 -12.847656 22.765625 -12.859375 C 23.179688 -12.878906 23.492188 -12.75 23.703125 -12.46875 L 28.34375 -6.46875 C 28.519531 -6.25 28.5625 -5.972656 28.46875 -5.640625 C 28.375 -5.304688 28.164062 -5.003906 27.84375 -4.734375 C 27.289062 -4.296875 26.640625 -3.859375 25.890625 -3.421875 C 25.140625 -2.992188 24.347656 -2.609375 23.515625 -2.265625 C 22.679688 -1.921875 21.84375 -1.628906 21 -1.390625 C 20.15625 -1.160156 19.359375 -1.015625 18.609375 -0.953125 C 16.679688 -0.796875 14.832031 -0.921875 13.0625 -1.328125 C 11.300781 -1.734375 9.664062 -2.382812 8.15625 -3.28125 C 6.644531 -4.175781 5.304688 -5.273438 4.140625 -6.578125 C 2.972656 -7.890625 2.035156 -9.367188 1.328125 -11.015625 C 0.617188 -12.660156 0.1875 -14.429688 0.03125 -16.328125 C -0.132812 -18.234375 -0.00390625 -20.0625 0.421875 -21.8125 C 0.847656 -23.570312 1.523438 -25.195312 2.453125 -26.6875 C 3.378906 -28.175781 4.507812 -29.488281 5.84375 -30.625 C 7.1875 -31.769531 8.691406 -32.691406 10.359375 -33.390625 C 12.035156 -34.085938 13.835938 -34.515625 15.765625 -34.671875 C 16.492188 -34.734375 17.289062 -34.722656 18.15625 -34.640625 C 19.03125 -34.566406 19.921875 -34.425781 20.828125 -34.21875 C 21.734375 -34.007812 22.613281 -33.75 23.46875 -33.4375 C 24.320312 -33.125 25.078125 -32.765625 25.734375 -32.359375 C 26.046875 -32.179688 26.242188 -31.929688 26.328125 -31.609375 C 26.421875 -31.296875 26.394531 -31.003906 26.25 -30.734375 L 22.625 -24.09375 C 22.457031 -23.8125 22.1875 -23.632812 21.8125 -23.5625 C 21.445312 -23.488281 21.082031 -23.578125 20.71875 -23.828125 C 20.351562 -24.066406 19.925781 -24.269531 19.4375 -24.4375 C 18.945312 -24.601562 18.453125 -24.726562 17.953125 -24.8125 C 17.453125 -24.90625 17 -24.9375 16.59375 -24.90625 C 15.5625 -24.820312 14.613281 -24.5625 13.75 -24.125 C 12.894531 -23.6875 12.15625 -23.113281 11.53125 -22.40625 C 10.914062 -21.707031 10.453125 -20.910156 10.140625 -20.015625 C 9.835938 -19.128906 9.734375 -18.175781 9.828125 -17.15625 C 9.910156 -16.164062 10.175781 -15.257812 10.625 -14.4375 C 11.070312 -13.613281 11.660156 -12.910156 12.390625 -12.328125 C 13.117188 -11.753906 13.941406 -11.328125 14.859375 -11.046875 C 15.773438 -10.773438 16.75 -10.679688 17.78125 -10.765625 C 18.15625 -10.796875 18.566406 -10.890625 19.015625 -11.046875 C 19.472656 -11.203125 19.925781 -11.398438 20.375 -11.640625 C 20.820312 -11.878906 21.210938 -12.128906 21.546875 -12.390625 Z M 21.546875 -12.390625 "/></g></g></g><g fill="#d9d9d9" fill-opacity="1"><g transform="translate(138.434534, 194.824049)"><g><path d="M 21.546875 -12.390625 C 21.941406 -12.691406 22.347656 -12.847656 22.765625 -12.859375 C 23.179688 -12.878906 23.492188 -12.75 23.703125 -12.46875 L 28.34375 -6.46875 C 28.519531 -6.25 28.5625 -5.972656 28.46875 -5.640625 C 28.375 -5.304688 28.164062 -5.003906 27.84375 -4.734375 C 27.289062 -4.296875 26.640625 -3.859375 25.890625 -3.421875 C 25.140625 -2.992188 24.347656 -2.609375 23.515625 -2.265625 C 22.679688 -1.921875 21.84375 -1.628906 21 -1.390625 C 20.15625 -1.160156 19.359375 -1.015625 18.609375 -0.953125 C 16.679688 -0.796875 14.832031 -0.921875 13.0625 -1.328125 C 11.300781 -1.734375 9.664062 -2.382812 8.15625 -3.28125 C 6.644531 -4.175781 5.304688 -5.273438 4.140625 -6.578125 C 2.972656 -7.890625 2.035156 -9.367188 1.328125 -11.015625 C 0.617188 -12.660156 0.1875 -14.429688 0.03125 -16.328125 C -0.132812 -18.234375 -0.00390625 -20.0625 0.421875 -21.8125 C 0.847656 -23.570312 1.523438 -25.195312 2.453125 -26.6875 C 3.378906 -28.175781 4.507812 -29.488281 5.84375 -30.625 C 7.1875 -31.769531 8.691406 -32.691406 10.359375 -33.390625 C 12.035156 -34.085938 13.835938 -34.515625 15.765625 -34.671875 C 16.492188 -34.734375 17.289062 -34.722656 18.15625 -34.640625 C 19.03125 -34.566406 19.921875 -34.425781 20.828125 -34.21875 C 21.734375 -34.007812 22.613281 -33.75 23.46875 -33.4375 C 24.320312 -33.125 25.078125 -32.765625 25.734375 -32.359375 C 26.046875 -32.179688 26.242188 -31.929688 26.328125 -31.609375 C 26.421875 -31.296875 26.394531 -31.003906 26.25 -30.734375 L 22.625 -24.09375 C 22.457031 -23.8125 22.1875 -23.632812 21.8125 -23.5625 C 21.445312 -23.488281 21.082031 -23.578125 20.71875 -23.828125 C 20.351562 -24.066406 19.925781 -24.269531 19.4375 -24.4375 C 18.945312 -24.601562 18.453125 -24.726562 17.953125 -24.8125 C 17.453125 -24.90625 17 -24.9375 16.59375 -24.90625 C 15.5625 -24.820312 14.613281 -24.5625 13.75 -24.125 C 12.894531 -23.6875 12.15625 -23.113281 11.53125 -22.40625 C 10.914062 -21.707031 10.453125 -20.910156 10.140625 -20.015625 C 9.835938 -19.128906 9.734375 -18.175781 9.828125 -17.15625 C 9.910156 -16.164062 10.175781 -15.257812 10.625 -14.4375 C 11.070312 -13.613281 11.660156 -12.910156 12.390625 -12.328125 C 13.117188 -11.753906 13.941406 -11.328125 14.859375 -11.046875 C 15.773438 -10.773438 16.75 -10.679688 17.78125 -10.765625 C 18.15625 -10.796875 18.566406 -10.890625 19.015625 -11.046875 C 19.472656 -11.203125 19.925781 -11.398438 20.375 -11.640625 C 20.820312 -11.878906 21.210938 -12.128906 21.546875 -12.390625 Z M 21.546875 -12.390625 "/></g></g></g><g fill="#d9d9d9" fill-opacity="1"><g transform="translate(168.786362, 192.266021)"><g><path d="M 0.03125 -16.328125 C -0.132812 -18.234375 -0.0078125 -20.0625 0.40625 -21.8125 C 0.832031 -23.570312 1.5 -25.191406 2.40625 -26.671875 C 3.320312 -28.160156 4.441406 -29.472656 5.765625 -30.609375 C 7.085938 -31.753906 8.578125 -32.675781 10.234375 -33.375 C 11.898438 -34.070312 13.6875 -34.5 15.59375 -34.65625 C 17.488281 -34.820312 19.3125 -34.695312 21.0625 -34.28125 C 22.820312 -33.875 24.453125 -33.21875 25.953125 -32.3125 C 27.453125 -31.414062 28.773438 -30.3125 29.921875 -29 C 31.078125 -27.6875 32.007812 -26.207031 32.71875 -24.5625 C 33.425781 -22.914062 33.863281 -21.128906 34.03125 -19.203125 C 34.1875 -17.304688 34.050781 -15.484375 33.625 -13.734375 C 33.195312 -11.992188 32.53125 -10.382812 31.625 -8.90625 C 30.71875 -7.425781 29.597656 -6.117188 28.265625 -4.984375 C 26.941406 -3.859375 25.445312 -2.941406 23.78125 -2.234375 C 22.125 -1.535156 20.34375 -1.101562 18.4375 -0.9375 C 16.519531 -0.78125 14.6875 -0.910156 12.9375 -1.328125 C 11.1875 -1.742188 9.5625 -2.394531 8.0625 -3.28125 C 6.570312 -4.175781 5.25 -5.273438 4.09375 -6.578125 C 2.945312 -7.890625 2.019531 -9.367188 1.3125 -11.015625 C 0.613281 -12.660156 0.1875 -14.429688 0.03125 -16.328125 Z M 9.828125 -17.15625 C 9.910156 -16.164062 10.164062 -15.253906 10.59375 -14.421875 C 11.03125 -13.597656 11.609375 -12.898438 12.328125 -12.328125 C 13.046875 -11.753906 13.851562 -11.328125 14.75 -11.046875 C 15.644531 -10.765625 16.597656 -10.664062 17.609375 -10.75 C 18.617188 -10.832031 19.546875 -11.085938 20.390625 -11.515625 C 21.242188 -11.953125 21.960938 -12.507812 22.546875 -13.1875 C 23.140625 -13.875 23.585938 -14.660156 23.890625 -15.546875 C 24.191406 -16.441406 24.300781 -17.382812 24.21875 -18.375 C 24.125 -19.394531 23.851562 -20.316406 23.40625 -21.140625 C 22.96875 -21.960938 22.394531 -22.671875 21.6875 -23.265625 C 20.976562 -23.859375 20.171875 -24.296875 19.265625 -24.578125 C 18.359375 -24.867188 17.410156 -24.972656 16.421875 -24.890625 C 15.421875 -24.804688 14.5 -24.546875 13.65625 -24.109375 C 12.8125 -23.679688 12.085938 -23.113281 11.484375 -22.40625 C 10.890625 -21.695312 10.441406 -20.898438 10.140625 -20.015625 C 9.835938 -19.128906 9.734375 -18.175781 9.828125 -17.15625 Z M 9.828125 -17.15625 "/></g></g></g><g fill="#d9d9d9" fill-opacity="1"><g transform="translate(205.559593, 189.166803)"><g><path d="M 9.515625 -32.5 L 11.015625 -14.84375 C 11.128906 -13.363281 11.601562 -12.21875 12.4375 -11.40625 C 13.28125 -10.59375 14.398438 -10.242188 15.796875 -10.359375 C 17.140625 -10.472656 18.160156 -11 18.859375 -11.9375 C 19.566406 -12.882812 19.863281 -14.097656 19.75 -15.578125 L 18.25 -33.234375 C 18.226562 -33.566406 18.304688 -33.832031 18.484375 -34.03125 C 18.671875 -34.238281 18.921875 -34.351562 19.234375 -34.375 L 26.84375 -35.03125 C 27.1875 -35.050781 27.46875 -34.976562 27.6875 -34.8125 C 27.914062 -34.644531 28.039062 -34.394531 28.0625 -34.0625 L 29.546875 -16.515625 C 29.734375 -14.285156 29.570312 -12.25 29.0625 -10.40625 C 28.5625 -8.570312 27.738281 -6.96875 26.59375 -5.59375 C 25.457031 -4.226562 24.046875 -3.128906 22.359375 -2.296875 C 20.679688 -1.472656 18.757812 -0.96875 16.59375 -0.78125 C 14.394531 -0.59375 12.390625 -0.765625 10.578125 -1.296875 C 8.773438 -1.835938 7.207031 -2.6875 5.875 -3.84375 C 4.550781 -5.007812 3.488281 -6.457031 2.6875 -8.1875 C 1.882812 -9.914062 1.390625 -11.882812 1.203125 -14.09375 L -0.28125 -31.671875 C -0.300781 -32.003906 -0.234375 -32.269531 -0.078125 -32.46875 C 0.078125 -32.675781 0.289062 -32.789062 0.5625 -32.8125 L 8.453125 -33.46875 C 8.753906 -33.5 9 -33.425781 9.1875 -33.25 C 9.382812 -33.082031 9.492188 -32.832031 9.515625 -32.5 Z M 9.515625 -32.5 "/></g></g></g><g fill="#d9d9d9" fill-opacity="1"><g transform="translate(238.651219, 186.377867)"><g><path d="M 29.75 -35.265625 C 30.0625 -35.296875 30.304688 -35.222656 30.484375 -35.046875 C 30.671875 -34.878906 30.773438 -34.644531 30.796875 -34.34375 L 33.421875 -3.203125 C 33.453125 -2.878906 33.382812 -2.625 33.21875 -2.4375 C 33.0625 -2.257812 32.832031 -2.15625 32.53125 -2.125 L 31.90625 -2.078125 C 31.507812 -2.046875 31.164062 -2.144531 30.875 -2.375 C 30.59375 -2.613281 30.257812 -2.851562 29.875 -3.09375 L 11.4375 -15.046875 L 12.53125 -2.046875 C 12.550781 -1.734375 12.476562 -1.484375 12.3125 -1.296875 C 12.15625 -1.109375 11.925781 -1.003906 11.625 -0.984375 L 3.765625 -0.3125 C 3.460938 -0.289062 3.210938 -0.359375 3.015625 -0.515625 C 2.828125 -0.671875 2.722656 -0.90625 2.703125 -1.21875 L 0.0625 -32.421875 C 0.0390625 -32.742188 0.109375 -32.992188 0.265625 -33.171875 C 0.429688 -33.347656 0.664062 -33.445312 0.96875 -33.46875 L 1.4375 -33.515625 C 1.8125 -33.546875 2.113281 -33.484375 2.34375 -33.328125 C 2.570312 -33.171875 2.863281 -32.96875 3.21875 -32.71875 L 22.15625 -19.765625 L 21 -33.53125 C 20.945312 -34.195312 21.25 -34.554688 21.90625 -34.609375 Z M 29.75 -35.265625 "/></g></g></g><g fill="#d9d9d9" fill-opacity="1"><g transform="translate(274.889345, 183.323747)"><g><path d="M -1.09375 -25.453125 L -1.578125 -31.21875 C -1.609375 -31.664062 -1.507812 -32.019531 -1.28125 -32.28125 C -1.0625 -32.550781 -0.742188 -32.703125 -0.328125 -32.734375 L 22.546875 -34.65625 C 22.972656 -34.695312 23.316406 -34.601562 23.578125 -34.375 C 23.847656 -34.144531 24 -33.8125 24.03125 -33.375 L 24.515625 -27.609375 C 24.554688 -27.179688 24.460938 -26.832031 24.234375 -26.5625 C 24.015625 -26.289062 23.691406 -26.132812 23.265625 -26.09375 L 16.703125 -25.546875 L 18.609375 -2.953125 C 18.640625 -2.523438 18.546875 -2.175781 18.328125 -1.90625 C 18.109375 -1.644531 17.78125 -1.5 17.34375 -1.46875 L 10.296875 -0.875 C 9.859375 -0.832031 9.503906 -0.921875 9.234375 -1.140625 C 8.972656 -1.367188 8.828125 -1.695312 8.796875 -2.125 L 6.890625 -24.71875 L 0.390625 -24.171875 C -0.00390625 -24.140625 -0.335938 -24.234375 -0.609375 -24.453125 C -0.890625 -24.679688 -1.050781 -25.015625 -1.09375 -25.453125 Z M -1.09375 -25.453125 "/></g></g></g><g fill="#d9d9d9" fill-opacity="1"><g transform="translate(125.718015, 226.672915)"><g><path d="M 22.546875 -2.5625 C 22.597656 -2.28125 22.550781 -2.070312 22.40625 -1.9375 C 22.257812 -1.800781 22.054688 -1.722656 21.796875 -1.703125 L 17.75 -1.375 C 17.507812 -1.363281 17.316406 -1.410156 17.171875 -1.515625 C 17.035156 -1.628906 16.945312 -1.816406 16.90625 -2.078125 L 16 -7.171875 L 13.140625 -1.453125 C 13.003906 -1.171875 12.859375 -0.960938 12.703125 -0.828125 C 12.554688 -0.691406 12.367188 -0.613281 12.140625 -0.59375 L 11.640625 -0.5625 C 11.410156 -0.539062 11.207031 -0.582031 11.03125 -0.6875 C 10.851562 -0.800781 10.675781 -0.988281 10.5 -1.25 L 6.8125 -6.453125 L 6.6875 -1.28125 C 6.675781 -1.007812 6.609375 -0.804688 6.484375 -0.671875 C 6.367188 -0.546875 6.195312 -0.476562 5.96875 -0.46875 L 1.921875 -0.15625 C 1.660156 -0.132812 1.445312 -0.175781 1.28125 -0.28125 C 1.113281 -0.394531 1.035156 -0.597656 1.046875 -0.890625 L 1.625 -18.34375 C 1.644531 -18.851562 1.882812 -19.125 2.34375 -19.15625 L 3.234375 -19.21875 C 3.492188 -19.238281 3.679688 -19.179688 3.796875 -19.046875 C 3.910156 -18.921875 4.039062 -18.753906 4.1875 -18.546875 L 11.265625 -8.578125 L 16.703125 -19.515625 C 16.804688 -19.742188 16.90625 -19.929688 17 -20.078125 C 17.101562 -20.234375 17.28125 -20.320312 17.53125 -20.34375 L 18.421875 -20.40625 C 18.878906 -20.445312 19.160156 -20.21875 19.265625 -19.71875 Z M 22.546875 -2.5625 "/></g></g></g><g fill="#d9d9d9" fill-opacity="1"><g transform="translate(149.421752, 224.826012)"><g><path d="M 18.765625 -2.3125 C 18.890625 -2.082031 18.910156 -1.878906 18.828125 -1.703125 C 18.742188 -1.523438 18.554688 -1.425781 18.265625 -1.40625 L 13.828125 -1.0625 C 13.609375 -1.039062 13.40625 -1.09375 13.21875 -1.21875 C 13.039062 -1.34375 12.910156 -1.503906 12.828125 -1.703125 L 12.296875 -2.9375 L 6.671875 -2.5 L 6.34375 -1.203125 C 6.289062 -1.003906 6.179688 -0.828125 6.015625 -0.671875 C 5.859375 -0.523438 5.660156 -0.441406 5.421875 -0.421875 L 0.984375 -0.078125 C 0.722656 -0.0546875 0.53125 -0.117188 0.40625 -0.265625 C 0.289062 -0.410156 0.273438 -0.617188 0.359375 -0.890625 L 6.578125 -18.734375 C 6.660156 -18.972656 6.789062 -19.160156 6.96875 -19.296875 C 7.144531 -19.429688 7.332031 -19.507812 7.53125 -19.53125 L 8.859375 -19.625 C 9.078125 -19.644531 9.28125 -19.59375 9.46875 -19.46875 C 9.65625 -19.34375 9.800781 -19.179688 9.90625 -18.984375 Z M 7.734375 -6.6875 L 10.59375 -6.90625 L 8.828125 -11.015625 Z M 7.734375 -6.6875 "/></g></g></g><g fill="#d9d9d9" fill-opacity="1"><g transform="translate(168.671913, 223.326114)"><g><path d="M 17.015625 -19.921875 C 17.191406 -19.929688 17.332031 -19.890625 17.4375 -19.796875 C 17.539062 -19.703125 17.601562 -19.578125 17.625 -19.421875 L 19 -1.703125 C 19.007812 -1.523438 18.96875 -1.378906 18.875 -1.265625 C 18.789062 -1.160156 18.660156 -1.101562 18.484375 -1.09375 L 18.140625 -1.0625 C 17.921875 -1.050781 17.726562 -1.109375 17.5625 -1.234375 C 17.40625 -1.367188 17.210938 -1.507812 16.984375 -1.65625 L 6.546875 -8.5 L 7.125 -1.125 C 7.144531 -0.945312 7.109375 -0.800781 7.015625 -0.6875 C 6.921875 -0.582031 6.785156 -0.523438 6.609375 -0.515625 L 2.15625 -0.171875 C 1.976562 -0.148438 1.835938 -0.1875 1.734375 -0.28125 C 1.628906 -0.375 1.566406 -0.507812 1.546875 -0.6875 L 0.171875 -18.40625 C 0.148438 -18.59375 0.1875 -18.734375 0.28125 -18.828125 C 0.375 -18.929688 0.507812 -18.992188 0.6875 -19.015625 L 0.953125 -19.03125 C 1.148438 -19.050781 1.3125 -19.015625 1.4375 -18.921875 C 1.5625 -18.828125 1.726562 -18.710938 1.9375 -18.578125 L 12.65625 -11.140625 L 12.046875 -18.984375 C 12.015625 -19.347656 12.1875 -19.546875 12.5625 -19.578125 Z M 17.015625 -19.921875 "/></g></g></g><g fill="#d9d9d9" fill-opacity="1"><g transform="translate(189.272754, 221.720976)"><g><path d="M 18.765625 -2.3125 C 18.890625 -2.082031 18.910156 -1.878906 18.828125 -1.703125 C 18.742188 -1.523438 18.554688 -1.425781 18.265625 -1.40625 L 13.828125 -1.0625 C 13.609375 -1.039062 13.40625 -1.09375 13.21875 -1.21875 C 13.039062 -1.34375 12.910156 -1.503906 12.828125 -1.703125 L 12.296875 -2.9375 L 6.671875 -2.5 L 6.34375 -1.203125 C 6.289062 -1.003906 6.179688 -0.828125 6.015625 -0.671875 C 5.859375 -0.523438 5.660156 -0.441406 5.421875 -0.421875 L 0.984375 -0.078125 C 0.722656 -0.0546875 0.53125 -0.117188 0.40625 -0.265625 C 0.289062 -0.410156 0.273438 -0.617188 0.359375 -0.890625 L 6.578125 -18.734375 C 6.660156 -18.972656 6.789062 -19.160156 6.96875 -19.296875 C 7.144531 -19.429688 7.332031 -19.507812 7.53125 -19.53125 L 8.859375 -19.625 C 9.078125 -19.644531 9.28125 -19.59375 9.46875 -19.46875 C 9.65625 -19.34375 9.800781 -19.179688 9.90625 -18.984375 Z M 7.734375 -6.6875 L 10.59375 -6.90625 L 8.828125 -11.015625 Z M 7.734375 -6.6875 "/></g></g></g><g fill="#d9d9d9" fill-opacity="1"><g transform="translate(208.522914, 220.221078)"><g><path d="M 15.6875 -12.078125 C 15.863281 -12.097656 16.007812 -12.0625 16.125 -11.96875 C 16.238281 -11.875 16.300781 -11.742188 16.3125 -11.578125 L 16.953125 -3.25 C 16.972656 -3.101562 16.945312 -2.953125 16.875 -2.796875 C 16.800781 -2.640625 16.703125 -2.519531 16.578125 -2.4375 C 16.253906 -2.207031 15.851562 -1.984375 15.375 -1.765625 C 14.894531 -1.546875 14.378906 -1.34375 13.828125 -1.15625 C 13.273438 -0.976562 12.71875 -0.828125 12.15625 -0.703125 C 11.601562 -0.585938 11.082031 -0.515625 10.59375 -0.484375 C 9.5 -0.398438 8.445312 -0.476562 7.4375 -0.71875 C 6.4375 -0.957031 5.503906 -1.332031 4.640625 -1.84375 C 3.773438 -2.363281 3.015625 -2.992188 2.359375 -3.734375 C 1.710938 -4.484375 1.191406 -5.328125 0.796875 -6.265625 C 0.398438 -7.210938 0.160156 -8.222656 0.078125 -9.296875 C -0.00390625 -10.378906 0.0703125 -11.414062 0.3125 -12.40625 C 0.5625 -13.394531 0.953125 -14.3125 1.484375 -15.15625 C 2.015625 -16 2.664062 -16.742188 3.4375 -17.390625 C 4.207031 -18.035156 5.066406 -18.550781 6.015625 -18.9375 C 6.960938 -19.320312 7.984375 -19.5625 9.078125 -19.65625 C 9.546875 -19.6875 10.035156 -19.675781 10.546875 -19.625 C 11.066406 -19.582031 11.582031 -19.5 12.09375 -19.375 C 12.613281 -19.257812 13.097656 -19.113281 13.546875 -18.9375 C 14.003906 -18.769531 14.394531 -18.578125 14.71875 -18.359375 C 14.882812 -18.234375 14.992188 -18.070312 15.046875 -17.875 C 15.097656 -17.675781 15.070312 -17.488281 14.96875 -17.3125 L 12.9375 -13.671875 C 12.84375 -13.492188 12.691406 -13.382812 12.484375 -13.34375 C 12.285156 -13.300781 12.09375 -13.34375 11.90625 -13.46875 C 11.71875 -13.613281 11.488281 -13.734375 11.21875 -13.828125 C 10.945312 -13.921875 10.660156 -13.992188 10.359375 -14.046875 C 10.066406 -14.097656 9.789062 -14.113281 9.53125 -14.09375 C 8.945312 -14.039062 8.40625 -13.894531 7.90625 -13.65625 C 7.414062 -13.425781 6.992188 -13.109375 6.640625 -12.703125 C 6.296875 -12.304688 6.035156 -11.851562 5.859375 -11.34375 C 5.679688 -10.84375 5.613281 -10.304688 5.65625 -9.734375 C 5.695312 -9.160156 5.835938 -8.625 6.078125 -8.125 C 6.316406 -7.632812 6.628906 -7.203125 7.015625 -6.828125 C 7.398438 -6.460938 7.859375 -6.1875 8.390625 -6 C 8.929688 -5.820312 9.523438 -5.757812 10.171875 -5.8125 C 10.234375 -5.8125 10.335938 -5.820312 10.484375 -5.84375 C 10.640625 -5.863281 10.804688 -5.890625 10.984375 -5.921875 C 11.160156 -5.960938 11.296875 -6 11.390625 -6.03125 L 11.296875 -7.09375 L 10 -6.984375 C 9.8125 -6.972656 9.664062 -7.007812 9.5625 -7.09375 C 9.457031 -7.1875 9.394531 -7.320312 9.375 -7.5 L 9.109375 -11.015625 C 9.078125 -11.378906 9.253906 -11.578125 9.640625 -11.609375 Z M 15.6875 -12.078125 "/></g></g></g><g fill="#d9d9d9" fill-opacity="1"><g transform="translate(226.750943, 218.800821)"><g><path d="M 15.03125 -6.484375 C 15.363281 -6.503906 15.632812 -6.425781 15.84375 -6.25 C 16.050781 -6.082031 16.171875 -5.84375 16.203125 -5.53125 L 16.46875 -2.046875 C 16.488281 -1.816406 16.429688 -1.625 16.296875 -1.46875 C 16.171875 -1.320312 15.988281 -1.242188 15.75 -1.234375 L 2.375 -0.1875 C 2.125 -0.164062 1.925781 -0.21875 1.78125 -0.34375 C 1.632812 -0.476562 1.550781 -0.660156 1.53125 -0.890625 L 0.21875 -17.828125 C 0.195312 -18.066406 0.25 -18.257812 0.375 -18.40625 C 0.5 -18.5625 0.6875 -18.648438 0.9375 -18.671875 L 14.0625 -19.6875 C 14.320312 -19.707031 14.523438 -19.648438 14.671875 -19.515625 C 14.816406 -19.378906 14.898438 -19.195312 14.921875 -18.96875 L 15.203125 -15.25 C 15.222656 -15 15.171875 -14.796875 15.046875 -14.640625 C 14.921875 -14.492188 14.726562 -14.410156 14.46875 -14.390625 L 6.140625 -13.75 L 6.3125 -11.609375 L 12.296875 -12.078125 C 12.578125 -12.097656 12.800781 -12.035156 12.96875 -11.890625 C 13.132812 -11.753906 13.226562 -11.554688 13.25 -11.296875 L 13.453125 -8.796875 C 13.460938 -8.554688 13.394531 -8.359375 13.25 -8.203125 C 13.113281 -8.046875 12.90625 -7.957031 12.625 -7.9375 L 6.640625 -7.46875 L 6.765625 -5.84375 Z M 15.03125 -6.484375 "/></g></g></g><g fill="#d9d9d9" fill-opacity="1"><g transform="translate(244.467904, 217.420384)"><g><path d="M 22.546875 -2.5625 C 22.597656 -2.28125 22.550781 -2.070312 22.40625 -1.9375 C 22.257812 -1.800781 22.054688 -1.722656 21.796875 -1.703125 L 17.75 -1.375 C 17.507812 -1.363281 17.316406 -1.410156 17.171875 -1.515625 C 17.035156 -1.628906 16.945312 -1.816406 16.90625 -2.078125 L 16 -7.171875 L 13.140625 -1.453125 C 13.003906 -1.171875 12.859375 -0.960938 12.703125 -0.828125 C 12.554688 -0.691406 12.367188 -0.613281 12.140625 -0.59375 L 11.640625 -0.5625 C 11.410156 -0.539062 11.207031 -0.582031 11.03125 -0.6875 C 10.851562 -0.800781 10.675781 -0.988281 10.5 -1.25 L 6.8125 -6.453125 L 6.6875 -1.28125 C 6.675781 -1.007812 6.609375 -0.804688 6.484375 -0.671875 C 6.367188 -0.546875 6.195312 -0.476562 5.96875 -0.46875 L 1.921875 -0.15625 C 1.660156 -0.132812 1.445312 -0.175781 1.28125 -0.28125 C 1.113281 -0.394531 1.035156 -0.597656 1.046875 -0.890625 L 1.625 -18.34375 C 1.644531 -18.851562 1.882812 -19.125 2.34375 -19.15625 L 3.234375 -19.21875 C 3.492188 -19.238281 3.679688 -19.179688 3.796875 -19.046875 C 3.910156 -18.921875 4.039062 -18.753906 4.1875 -18.546875 L 11.265625 -8.578125 L 16.703125 -19.515625 C 16.804688 -19.742188 16.90625 -19.929688 17 -20.078125 C 17.101562 -20.234375 17.28125 -20.320312 17.53125 -20.34375 L 18.421875 -20.40625 C 18.878906 -20.445312 19.160156 -20.21875 19.265625 -19.71875 Z M 22.546875 -2.5625 "/></g></g></g><g fill="#d9d9d9" fill-opacity="1"><g transform="translate(268.171641, 215.573481)"><g><path d="M 15.03125 -6.484375 C 15.363281 -6.503906 15.632812 -6.425781 15.84375 -6.25 C 16.050781 -6.082031 16.171875 -5.84375 16.203125 -5.53125 L 16.46875 -2.046875 C 16.488281 -1.816406 16.429688 -1.625 16.296875 -1.46875 C 16.171875 -1.320312 15.988281 -1.242188 15.75 -1.234375 L 2.375 -0.1875 C 2.125 -0.164062 1.925781 -0.21875 1.78125 -0.34375 C 1.632812 -0.476562 1.550781 -0.660156 1.53125 -0.890625 L 0.21875 -17.828125 C 0.195312 -18.066406 0.25 -18.257812 0.375 -18.40625 C 0.5 -18.5625 0.6875 -18.648438 0.9375 -18.671875 L 14.0625 -19.6875 C 14.320312 -19.707031 14.523438 -19.648438 14.671875 -19.515625 C 14.816406 -19.378906 14.898438 -19.195312 14.921875 -18.96875 L 15.203125 -15.25 C 15.222656 -15 15.171875 -14.796875 15.046875 -14.640625 C 14.921875 -14.492188 14.726562 -14.410156 14.46875 -14.390625 L 6.140625 -13.75 L 6.3125 -11.609375 L 12.296875 -12.078125 C 12.578125 -12.097656 12.800781 -12.035156 12.96875 -11.890625 C 13.132812 -11.753906 13.226562 -11.554688 13.25 -11.296875 L 13.453125 -8.796875 C 13.460938 -8.554688 13.394531 -8.359375 13.25 -8.203125 C 13.113281 -8.046875 12.90625 -7.957031 12.625 -7.9375 L 6.640625 -7.46875 L 6.765625 -5.84375 Z M 15.03125 -6.484375 "/></g></g></g><g fill="#d9d9d9" fill-opacity="1"><g transform="translate(285.888603, 214.193044)"><g><path d="M 17.015625 -19.921875 C 17.191406 -19.929688 17.332031 -19.890625 17.4375 -19.796875 C 17.539062 -19.703125 17.601562 -19.578125 17.625 -19.421875 L 19 -1.703125 C 19.007812 -1.523438 18.96875 -1.378906 18.875 -1.265625 C 18.789062 -1.160156 18.660156 -1.101562 18.484375 -1.09375 L 18.140625 -1.0625 C 17.921875 -1.050781 17.726562 -1.109375 17.5625 -1.234375 C 17.40625 -1.367188 17.210938 -1.507812 16.984375 -1.65625 L 6.546875 -8.5 L 7.125 -1.125 C 7.144531 -0.945312 7.109375 -0.800781 7.015625 -0.6875 C 6.921875 -0.582031 6.785156 -0.523438 6.609375 -0.515625 L 2.15625 -0.171875 C 1.976562 -0.148438 1.835938 -0.1875 1.734375 -0.28125 C 1.628906 -0.375 1.566406 -0.507812 1.546875 -0.6875 L 0.171875 -18.40625 C 0.148438 -18.59375 0.1875 -18.734375 0.28125 -18.828125 C 0.375 -18.929688 0.507812 -18.992188 0.6875 -19.015625 L 0.953125 -19.03125 C 1.148438 -19.050781 1.3125 -19.015625 1.4375 -18.921875 C 1.5625 -18.828125 1.726562 -18.710938 1.9375 -18.578125 L 12.65625 -11.140625 L 12.046875 -18.984375 C 12.015625 -19.347656 12.1875 -19.546875 12.5625 -19.578125 Z M 17.015625 -19.921875 "/></g></g></g><g fill="#d9d9d9" fill-opacity="1"><g transform="translate(306.489444, 212.587906)"><g><path d="M -0.53125 -14.46875 L -0.78125 -17.75 C -0.800781 -17.988281 -0.742188 -18.179688 -0.609375 -18.328125 C -0.484375 -18.484375 -0.300781 -18.570312 -0.0625 -18.59375 L 12.9375 -19.609375 C 13.175781 -19.617188 13.367188 -19.554688 13.515625 -19.421875 C 13.671875 -19.296875 13.757812 -19.117188 13.78125 -18.890625 L 14.03125 -15.609375 C 14.050781 -15.359375 13.992188 -15.148438 13.859375 -14.984375 C 13.734375 -14.828125 13.550781 -14.742188 13.3125 -14.734375 L 9.578125 -14.4375 L 10.578125 -1.609375 C 10.597656 -1.367188 10.546875 -1.171875 10.421875 -1.015625 C 10.296875 -0.867188 10.109375 -0.785156 9.859375 -0.765625 L 5.859375 -0.453125 C 5.609375 -0.429688 5.40625 -0.484375 5.25 -0.609375 C 5.101562 -0.742188 5.019531 -0.929688 5 -1.171875 L 4 -14 L 0.3125 -13.71875 C 0.0820312 -13.695312 -0.109375 -13.753906 -0.265625 -13.890625 C -0.421875 -14.023438 -0.507812 -14.21875 -0.53125 -14.46875 Z M -0.53125 -14.46875 "/></g></g></g><g fill="#d9d9d9" fill-opacity="1"><g transform="translate(77.044853, 228.718337)"><g><path d="M 15.734375 -2.109375 C 15.847656 -1.910156 15.867188 -1.738281 15.796875 -1.59375 C 15.734375 -1.445312 15.582031 -1.363281 15.34375 -1.34375 L 11.609375 -1.015625 C 11.421875 -0.992188 11.25 -1.035156 11.09375 -1.140625 C 10.9375 -1.242188 10.820312 -1.375 10.75 -1.53125 L 10.296875 -2.578125 L 5.59375 -2.15625 L 5.328125 -1.0625 C 5.273438 -0.90625 5.179688 -0.757812 5.046875 -0.625 C 4.921875 -0.5 4.753906 -0.425781 4.546875 -0.40625 L 0.828125 -0.078125 C 0.609375 -0.0546875 0.445312 -0.109375 0.34375 -0.234375 C 0.238281 -0.359375 0.222656 -0.53125 0.296875 -0.75 L 5.359375 -15.796875 C 5.421875 -16.003906 5.523438 -16.160156 5.671875 -16.265625 C 5.816406 -16.378906 5.976562 -16.445312 6.15625 -16.46875 L 7.265625 -16.5625 C 7.453125 -16.582031 7.625 -16.539062 7.78125 -16.4375 C 7.9375 -16.332031 8.0625 -16.203125 8.15625 -16.046875 Z M 6.421875 -5.6875 L 8.84375 -5.90625 L 7.3125 -9.328125 Z M 6.421875 -5.6875 "/></g></g><g transform="translate(93.203208, 227.286402)"><g><path d="M 6.078125 -16.171875 C 7.109375 -16.265625 8.0625 -16.1875 8.9375 -15.9375 C 9.8125 -15.695312 10.59375 -15.328125 11.28125 -14.828125 C 11.96875 -14.328125 12.515625 -13.703125 12.921875 -12.953125 C 13.335938 -12.210938 13.585938 -11.390625 13.671875 -10.484375 C 13.753906 -9.566406 13.65625 -8.710938 13.375 -7.921875 C 13.101562 -7.128906 12.671875 -6.421875 12.078125 -5.796875 C 11.492188 -5.171875 10.789062 -4.664062 9.96875 -4.28125 C 9.144531 -3.90625 8.21875 -3.671875 7.1875 -3.578125 L 5.75 -3.453125 L 5.953125 -1.171875 C 5.972656 -0.984375 5.925781 -0.820312 5.8125 -0.6875 C 5.707031 -0.5625 5.546875 -0.488281 5.328125 -0.46875 L 1.984375 -0.171875 C 1.773438 -0.148438 1.609375 -0.191406 1.484375 -0.296875 C 1.359375 -0.410156 1.285156 -0.566406 1.265625 -0.765625 L 0.015625 -14.96875 C -0.00390625 -15.164062 0.0390625 -15.332031 0.15625 -15.46875 C 0.269531 -15.601562 0.421875 -15.675781 0.609375 -15.6875 L 2.40625 -15.84375 C 2.75 -15.875 3.0625 -15.898438 3.34375 -15.921875 C 3.625 -15.953125 3.832031 -15.972656 3.96875 -15.984375 Z M 6.5 -7.640625 C 7.019531 -7.691406 7.472656 -7.828125 7.859375 -8.046875 C 8.242188 -8.273438 8.535156 -8.566406 8.734375 -8.921875 C 8.941406 -9.273438 9.03125 -9.664062 9 -10.09375 C 8.957031 -10.519531 8.800781 -10.882812 8.53125 -11.1875 C 8.269531 -11.5 7.929688 -11.734375 7.515625 -11.890625 C 7.097656 -12.046875 6.628906 -12.097656 6.109375 -12.046875 L 5 -11.953125 L 5.390625 -7.546875 Z M 6.5 -7.640625 "/></g></g><g transform="translate(108.29932, 225.948601)"><g><path d="M 4.671875 -15.578125 L 5.953125 -1 C 5.984375 -0.6875 5.847656 -0.515625 5.546875 -0.484375 L 1.8125 -0.15625 C 1.488281 -0.132812 1.3125 -0.28125 1.28125 -0.59375 L 0 -15.171875 C -0.03125 -15.484375 0.113281 -15.648438 0.4375 -15.671875 L 4.171875 -16 C 4.472656 -16.03125 4.640625 -15.890625 4.671875 -15.578125 Z M 4.671875 -15.578125 "/></g></g></g></svg>